<?xml version="1.0" encoding="utf-8"?>
<!-- Generator: Adobe Illustrator 15.0.2, SVG Export Plug-In . SVG Version: 6.00 Build 0)  -->
<!DOCTYPE svg PUBLIC "-//W3C//DTD SVG 1.1//EN" "http://www.w3.org/Graphics/SVG/1.1/DTD/svg11.dtd">
<svg version="1.1" xmlns="http://www.w3.org/2000/svg" xmlns:xlink="http://www.w3.org/1999/xlink" x="0px" y="0px" width="337px"
	 height="361px" viewBox="0 0 337 361" enable-background="new 0 0 337 361" xml:space="preserve">
<g id="Kreise">
	<g id="_x31_1">
		<circle id="unten_re" fill="#F39000" cx="201.407" cy="227.685" r="4.201"/>
		<circle fill="none" stroke="#9D9D9C" stroke-miterlimit="10" cx="201.407" cy="227.684" r="66.04"/>
	</g>
	<g id="_x31_0">
		<circle fill="#E30613" cx="110.311" cy="291.176" r="4.201"/>
		<circle fill="none" stroke="#9D9D9C" stroke-miterlimit="10" cx="110.311" cy="291.175" r="63.945"/>
	</g>
	<g id="_x39_">
		<circle fill="#E30613" cx="71.221" cy="228.395" r="4.201"/>
		<circle fill="none" stroke="#9D9D9C" stroke-miterlimit="10" cx="71.221" cy="228.395" r="64.415"/>
	</g>
	<g id="_x38_">
		<circle fill="#E30613" cx="201.619" cy="226.22" r="4.201"/>
		<circle fill="none" stroke="#9D9D9C" stroke-miterlimit="10" cx="201.619" cy="226.22" r="66.363"/>
	</g>
	<g id="_x37_">
		<circle fill="#E30613" cx="235.128" cy="198.682" r="4.201"/>
		<circle fill="none" stroke="#9D9D9C" stroke-miterlimit="10" cx="235.128" cy="198.682" r="59.304"/>
	</g>
	<g id="_x36_">
		<circle fill="#E30613" cx="107.84" cy="155.537" r="4.201"/>
		<circle fill="none" stroke="#9D9D9C" stroke-miterlimit="10" cx="107.84" cy="155.536" r="81.706"/>
	</g>
	<g id="_x35_">
		<circle fill="#E30613" cx="235.128" cy="127.458" r="4.201"/>
		<circle fill="none" stroke="#9D9D9C" stroke-miterlimit="10" cx="235.128" cy="127.457" r="56.735"/>
	</g>
	<g id="_x34_">
		<circle fill="#E30613" cx="104.59" cy="127.036" r="4.202"/>
		<circle fill="none" stroke="#9D9D9C" stroke-miterlimit="10" cx="104.59" cy="127.035" r="91.313"/>
	</g>
	<g id="_x33_">
		<circle fill="#E30613" cx="267.916" cy="107.613" r="4.201"/>
		<circle fill="none" stroke="#9D9D9C" stroke-miterlimit="10" cx="267.916" cy="107.613" r="54.918"/>
	</g>
	<g id="_x32_">
		<circle fill="#E30613" cx="152.961" cy="93.251" r="4.202"/>
		<circle fill="none" stroke="#9D9D9C" stroke-miterlimit="10" cx="152.961" cy="93.251" r="76.88"/>
	</g>
	<g id="_x31_">
		<circle fill="#E30613" cx="205.403" cy="-90.544" r="4.201"/>
		<circle fill="none" stroke="#9D9D9C" stroke-miterlimit="10" cx="205.404" cy="-90.545" r="163.28"/>
	</g>
</g>
<g id="Vertices">
	<circle stroke="#000000" stroke-miterlimit="10" cx="46.445" cy="287.865" r="4.202"/>
	<circle stroke="#000000" stroke-miterlimit="10" cx="263.251" cy="250.891" r="4.202"/>
	<circle stroke="#000000" stroke-miterlimit="10" cx="174.176" cy="287.865" r="4.202"/>
	<circle stroke="#000000" stroke-miterlimit="10" cx="280.899" cy="160.975" r="4.202"/>
	<circle stroke="#000000" stroke-miterlimit="10" cx="280.899" cy="54.252" r="4.202"/>
	<circle stroke="#000000" stroke-miterlimit="10" cx="189.358" cy="160.975" r="4.202"/>
	<circle stroke="#000000" stroke-miterlimit="10" cx="135.521" cy="232.404" r="4.202"/>
	<circle stroke="#000000" stroke-miterlimit="10" cx="29.638" cy="179.187" r="4.202"/>
	<circle stroke="#000000" stroke-miterlimit="10" cx="101.907" cy="35.765" r="4.202"/>
	<circle stroke="#000000" stroke-miterlimit="10" cx="226.665" cy="71.361" r="4.202"/>
</g>
<g id="Edges">
	<line fill="none" stroke="#000000" stroke-miterlimit="10" x1="101.907" y1="35.765" x2="280.899" y2="54.252"/>
	<line fill="none" stroke="#000000" stroke-miterlimit="10" x1="280.899" y1="54.252" x2="226.664" y2="71.361"/>
	<line fill="none" stroke="#000000" stroke-miterlimit="10" x1="226.664" y1="71.361" x2="280.899" y2="160.975"/>
	<line fill="none" stroke="#000000" stroke-miterlimit="10" x1="226.664" y1="71.361" x2="101.907" y2="35.765"/>
	<line fill="none" stroke="#000000" stroke-miterlimit="10" x1="226.664" y1="71.361" x2="189.358" y2="160.975"/>
	<line fill="none" stroke="#000000" stroke-miterlimit="10" x1="189.358" y1="160.975" x2="280.899" y2="160.975"/>
	<line fill="none" stroke="#000000" stroke-miterlimit="10" x1="280.899" y1="160.975" x2="280.899" y2="54.252"/>
	<line fill="none" stroke="#000000" stroke-miterlimit="10" x1="101.907" y1="35.765" x2="189.358" y2="160.974"/>
	<line fill="none" stroke="#000000" stroke-miterlimit="10" x1="101.907" y1="35.765" x2="29.639" y2="179.186"/>
	<line fill="none" stroke="#000000" stroke-miterlimit="10" x1="29.639" y1="179.186" x2="189.358" y2="160.974"/>
	<line fill="none" stroke="#000000" stroke-miterlimit="10" x1="189.358" y1="160.974" x2="135.521" y2="232.403"/>
	<line fill="none" stroke="#000000" stroke-miterlimit="10" x1="135.521" y1="232.403" x2="174.176" y2="287.865"/>
	<line fill="none" stroke="#000000" stroke-miterlimit="10" x1="174.176" y1="287.865" x2="263.252" y2="250.891"/>
	<line fill="none" stroke="#000000" stroke-miterlimit="10" x1="263.252" y1="250.891" x2="280.899" y2="160.975"/>
	<line fill="none" stroke="#000000" stroke-miterlimit="10" x1="189.354" y1="160.975" x2="263.252" y2="250.891"/>
	<line fill="none" stroke="#000000" stroke-miterlimit="10" x1="135.521" y1="232.403" x2="263.252" y2="250.891"/>
	<line fill="none" stroke="#000000" stroke-miterlimit="10" x1="29.639" y1="179.186" x2="135.524" y2="232.403"/>
	<line fill="none" stroke="#000000" stroke-miterlimit="10" x1="135.524" y1="232.403" x2="46.445" y2="287.865"/>
	<line fill="none" stroke="#000000" stroke-miterlimit="10" x1="46.445" y1="287.865" x2="29.639" y2="179.186"/>
	<line fill="none" stroke="#000000" stroke-miterlimit="10" x1="46.445" y1="287.865" x2="174.176" y2="287.865"/>
</g>
</svg>
